# xmcd
#
# Track frame offsets:
#	150
#	20100
#	32505
#	47723
#
# Disc length: 933 seconds
#
# Revision: 2
# Processed by: cddbd v1.5.2PL0 Copyright (c) Steve Scherf et al.
# Submitted via: audiograbber 1.83.01
#
DISCID=2b03a304
DTITLE=Condemned Remains - Goresaw Putridity
DYEAR=2009
DGENRE=Death Metal
TTITLE0=Trail of Insects
TTITLE1=Prolapsed Gloryhole
TTITLE2=Lacerated Remnants of Goresaw Putridity
TTITLE3=Abominations of Morbid Butchery
EXTD=
EXTT0=
EXTT1=
EXTT2=
EXTT3=
PLAYORDER=
